<svg id="Capa_2" data-name="Capa 2" xmlns="http://www.w3.org/2000/svg" viewBox="0 0 15.89 31.71"><defs><style>.cls-1{fill:#69b430;}.cls-2,.cls-4{fill:none;stroke:#69b432;stroke-miterlimit:10;}.cls-2{stroke-width:2px;}.cls-3{fill:#676766;}.cls-5{fill:#69b432;}</style></defs><title>logo</title><path class="cls-1" d="M16,21.69a5.69,5.69,0,1,1,0-11.37" transform="translate(-0.09 -0.14)"/><polygon class="cls-1" points="9.05 9.09 6.82 12.73 11.72 14.52 12.73 12.72 9.05 9.09"/><polygon class="cls-1" points="15.89 6.57 15.89 25.14 13.69 25.14 14.79 21.15 14.79 11.41 13.96 6.57 15.89 6.57"/><path class="cls-2" d="M4.81,8.8A12.53,12.53,0,0,1,16,2.75" transform="translate(-0.09 -0.14)"/><path class="cls-2" d="M4.17,22.09A11.78,11.78,0,0,1,2.69,16,11.52,11.52,0,0,1,4.31,9.63" transform="translate(-0.09 -0.14)"/><path class="cls-2" d="M16,29.25A12.66,12.66,0,0,1,4.54,22.76" transform="translate(-0.09 -0.14)"/><path class="cls-1" d="M6.64,18.69a12.44,12.44,0,0,0,2.17,3.85L16,16" transform="translate(-0.09 -0.14)"/><path class="cls-1" d="M9.11,9.19a9.26,9.26,0,0,0-2.29,3.67L16,16" transform="translate(-0.09 -0.14)"/><path class="cls-3" d="M9.53,17.15" transform="translate(-0.09 -0.14)"/><path class="cls-1" d="M16,6.33a7.09,7.09,0,0,0-2.2.23L16,16" transform="translate(-0.09 -0.14)"/><path class="cls-1" d="M13.72,25.37a10.67,10.67,0,0,0,2.26.26l0-9.76" transform="translate(-0.09 -0.14)"/><path class="cls-4" d="M16,31.36A15.36,15.36,0,0,1,16,.64" transform="translate(-0.09 -0.14)"/><path class="cls-5" d="M7.41,6.92,8.5,8a12.07,12.07,0,0,1,4.9-2.63l-.35-1.6A11,11,0,0,0,7.41,6.92Z" transform="translate(-0.09 -0.14)"/><path class="cls-5" d="M3.68,19.1l1.47-.46a12.12,12.12,0,0,1-.07-5.57L3.5,12.65A11,11,0,0,0,3.68,19.1Z" transform="translate(-0.09 -0.14)"/><path class="cls-5" d="M12.65,28.25,13,26.76a12.16,12.16,0,0,1-4.76-2.88L7.08,25A11,11,0,0,0,12.65,28.25Z" transform="translate(-0.09 -0.14)"/></svg>