<?xml version="1.0" encoding="utf-8"?>
<!-- Generator: Adobe Illustrator 24.0.2, SVG Export Plug-In . SVG Version: 6.00 Build 0)  -->
<svg version="1.1" id="Capa_1" xmlns:vectornator="http://vectornator.io"
	 xmlns="http://www.w3.org/2000/svg" xmlns:xlink="http://www.w3.org/1999/xlink" x="0px" y="0px" viewBox="0 0 792 612"
	 style="enable-background:new 0 0 792 612;" xml:space="preserve">
<style type="text/css">
	.st0{fill-rule:evenodd;clip-rule:evenodd;fill:#336633;}
</style>
<g id="Capa-2" vectornator:layerName="Capa 2">
	<path class="st0" d="M404.5,163.5c0,0,160.3,63.5,250,156c0,0,21.1-199.9-183.1-262c0,0-141-66.4-281,76.2c0,0-25.3-22-34.3-70.3
		c0,0,36.1,4.8,77.1,32.8c0,0,26.3-19.8,50.6-30.7c0,0-114.8-91.5-171.4-41.2c0,0-25.3,34.1,2.4,90.5c0,0,69.1,164.4,277.4,316.3
		c0,0-142.6-44.5-265.9-167.6c0,0-44.9,171,127,280.4c0,0,138.1,78.9,268-1.5c0,0,53.9-31.6,90.1-79.6c0,0,25.6,33.5,29.1,69.9
		c0,0-41.3-6.3-68.8-27.9c0,0-32.1,27.2-45.5,34.4c0,0,115.4,80.7,156.8,35C682.8,574.3,775.2,475,404.5,163.5z"/>
</g>
</svg>
