<?xml version="1.0" encoding="utf-8"?>
<!-- Generator: Adobe Illustrator 24.0.2, SVG Export Plug-In . SVG Version: 6.00 Build 0)  -->
<svg version="1.1" id="Capa_1" xmlns="http://www.w3.org/2000/svg" xmlns:xlink="http://www.w3.org/1999/xlink" x="0px" y="0px"
	 viewBox="0 0 32 32" style="enable-background:new 0 0 32 32;" xml:space="preserve">
<style type="text/css">
	.st0{fill:none;}
	.st1{display:none;fill:#2BC4E7;}
	.st2{fill:#343434;}
</style>
<title>github</title>
<g id="Fondo">
	<g id="container">
		<rect class="st0" width="32" height="32"/>
	</g>
	<path id="bg-color" class="st1" d="M17.6,0.6l10.7,6.2c1.1,0.6,1.7,1.8,1.8,3v12.4c0,1.2-0.7,2.4-1.8,3l-10.7,6.2
		c-1.1,0.6-2.4,0.6-3.5,0L3.4,25.1c-1.1-0.6-1.7-1.8-1.8-3V9.8c0-1.2,0.7-2.4,1.8-3l10.7-6.2C15.2-0.1,16.5-0.1,17.6,0.6z"/>
</g>
<g id="logo">
	<path class="st2" d="M12.9,26v-3c0,0-2.9,0.7-4-1.6s-1.7-2.2-1.7-2.2s-0.6-1.3,0.5-0.7c1,0.7,1.8,1.6,2.4,2.6c0,0,2.4,0.9,2.7-0.2
		s0.6-1.5,0.6-1.5s-5.8-0.5-5.7-6.5c0,0,0.2-2.6,1.2-3.7c0,0-0.4-3.1,0.4-3.7c1.2,0.1,2.4,0.5,3.4,1.2c2.2-0.6,4.6-0.6,6.8,0
		c0,0,2-1.4,3.4-1.2c0,0,1.1,0.7,0.6,3.6c0.8,1.2,1.2,2.5,1.1,3.9c0,2.5-0.9,5.1-5.3,6.2c0,0-1.3-0.1-0.5,0.7s0.8,6.1,0.8,6.1
		C17.7,26.8,15.1,26.9,12.9,26z"/>
</g>
</svg>
