<?xml version="1.0" encoding="utf-8"?>
<!-- Generator: Adobe Illustrator 24.0.2, SVG Export Plug-In . SVG Version: 6.00 Build 0)  -->
<svg version="1.1" xmlns="http://www.w3.org/2000/svg" xmlns:xlink="http://www.w3.org/1999/xlink" x="0px" y="0px"
	 viewBox="0 0 32 32" style="enable-background:new 0 0 32 32;" xml:space="preserve">
<style type="text/css">
	.st0{fill:none;stroke:#FFFFFF;stroke-width:2;stroke-miterlimit:10;}
</style>
<g id="Capa_2">
	<g>
		<path class="st0" d="M-49.03,10.75"/>
		<path class="st0" d="M-44.46,10.85c0,0,0.91,0.02,0.91,0.91s-0.02,18.25-0.02,18.25s-0.12,0.83-1,0.88c-0.88,0.05-4.28,0-4.28,0
			s-1.17,0.05-1.17-1c0-1.05,0-17.98,0-17.98s-0.2-1.03,1.37-1.05C-47.1,10.83-44.46,10.85-44.46,10.85z"/>
		<ellipse class="st0" cx="-46.72" cy="5.05" rx="4.15" ry="3.99"/>
		<path class="st0" d="M-40.75,12.04c0,4.37,0,17.49,0,17.49s-0.32,1.38,1.54,1.38c1.86,0,3.48,0,3.48,0s1.34,0.36,1.3-1.62
			c-0.04-1.98,0-9.03,0-9.03s0.4-4.39,3.6-4.38s3.16,4.14,3.16,4.14l0,9.68c0,0-0.2,1.18,1.66,1.22c1.86,0.04,3.85,0,3.85,0
			s0.97,0.12,1.01-1.66c0.04-1.78,0-10.45,0-10.45s0.4-8.54-7.57-8.26c0,0-3.81-0.45-5.67,2.71l-0.04-1.34c0,0,0.16-1.06-1.21-1.08
			c-1.38-0.02-3.85,0-3.85,0S-40.75,10.62-40.75,12.04z"/>
	</g>
	<path class="st0" d="M11.82,29.95V25.8c0,0-4.04,0.92-5.6-2.21s-2.37-3.12-2.37-3.12s-0.81-1.78,0.75-1.02
		C6.17,20.2,8,22.95,8,22.95s3.29,1.24,3.82-0.22s0.81-2.1,0.81-2.1s-8.13-0.76-7.86-9.02c0,0,0.22-3.63,1.67-5.2
		c0,0-0.54-4.31,0.54-5.17c0,0,2.53,0.16,4.79,1.67c0,0,5.17-1.56,9.43,0c0,0,2.8-1.99,4.74-1.67c0,0,1.51,1.02,0.86,4.96
		c0,0,1.62,1.96,1.56,5.45c-0.05,3.49-1.24,7.1-7.33,8.61c0,0-1.78-0.11-0.65,0.92c1.13,1.02,1.13,8.51,1.13,8.51
		S17.15,32,11.82,29.95z"/>
</g>
<g id="Capa_3">
	<g>
		<path class="st0" d="M53.51,14.26V30.1c0,0.09,0.1,0.14,0.17,0.08l11.15-8.61l-10.97-7.49C53.7,13.98,53.51,14.09,53.51,14.26z"/>
		<path class="st0" d="M81.94,30.31H53.82c-0.1,0-0.14-0.13-0.06-0.19l13.73-10.5c0.23-0.18,0.56-0.18,0.79,0l13.73,10.5
			C82.09,30.19,82.04,30.31,81.94,30.31z"/>
		<path class="st0" d="M82.52,14.56V30.1c0,0.09-0.1,0.14-0.17,0.08l-11.29-8.43l10.87-7.5C82.19,14.08,82.52,14.26,82.52,14.56z"/>
		<path class="st0" d="M58.07,16.96V2.04c0-0.06,0.05-0.1,0.1-0.1h19.35c0.06,0,0.1,0.05,0.1,0.1v14.92"/>
		<line class="st0" x1="58.07" y1="10.66" x2="53.58" y2="14.11"/>
		<line class="st0" x1="77.63" y1="10.86" x2="82.27" y2="14.18"/>
		<path class="st0" d="M71.52,15.28c0,0-8.34,3.25-8.78-4.62c0,0,0-5.85,5.94-5.47c0,0,5,0.59,4.45,4.97c0,0,0.03,2.93-2.46,3.16
			c0,0-1.17,0-1.17-1.08c0,0-1.29,1.23-1.96,1.05c0,0-1.99-0.02-1.64-2.73s1.89-2.51,1.89-2.51s1.84,0.3,2.02,1.18l0.16-1.47
			l-0.55,5"/>
	</g>
</g>
</svg>
