<?xml version="1.0" encoding="utf-8"?>
<!-- Generator: Adobe Illustrator 24.0.2, SVG Export Plug-In . SVG Version: 6.00 Build 0)  -->
<svg version="1.1" id="Capa_1" xmlns="http://www.w3.org/2000/svg" xmlns:xlink="http://www.w3.org/1999/xlink" x="0px" y="0px"
	 viewBox="0 0 32 32" style="enable-background:new 0 0 32 32;" xml:space="preserve">
<style type="text/css">
	.st0{fill:none;}
	.st1{display:none;fill:#2BC4E7;}
	.st2{fill:#343434;}
</style>
<title>linkedin</title>
<g id="Fondo">
	<g id="container">
		<rect class="st0" width="32" height="32"/>
	</g>
	<path id="bg-color" class="st1" d="M17.6,0.6l10.7,6.2c1.1,0.6,1.7,1.8,1.8,3v12.4c0,1.2-0.7,2.4-1.8,3l-10.7,6.2
		c-1.1,0.6-2.4,0.6-3.5,0L3.4,25.1c-1.1-0.6-1.7-1.8-1.8-3V9.8c0-1.2,0.7-2.4,1.8-3l10.7-6.2C15.2-0.1,16.5-0.1,17.6,0.6z"/>
</g>
<g id="logo">
	<path class="st2" d="M8,12.8"/>
	<path class="st2" d="M10.8,12.8c0.3,0,0.6,0.2,0.6,0.6l0,0c0,0.5,0,11,0,11c0,0.3-0.3,0.5-0.6,0.5c-0.5,0-2.6,0-2.6,0
		s-0.7,0-0.7-0.6V13.5c0,0-0.1-0.6,0.8-0.6S10.8,12.8,10.8,12.8z"/>
	<ellipse class="st2" cx="9.4" cy="9.3" rx="2.5" ry="2.4"/>
	<path class="st2" d="M13,13.6v10.6c0,0-0.2,0.8,0.9,0.8H16c0,0,0.8,0.2,0.8-1s0-5.4,0-5.4s0.2-2.6,2.2-2.6s1.9,2.5,1.9,2.5v5.8
		c0,0-0.1,0.7,1,0.7s2.3,0,2.3,0s0.6,0.1,0.6-1s0-6.3,0-6.3s0.2-5.1-4.6-5c-1.4-0.1-2.7,0.5-3.4,1.6v-0.8c0,0,0.1-0.6-0.7-0.6h-2.3
		c-0.4-0.1-0.7,0.2-0.8,0.5C13,13.4,13,13.5,13,13.6z"/>
</g>
</svg>
