<?xml version="1.0" encoding="utf-8"?>
<!-- Generator: Adobe Illustrator 24.0.2, SVG Export Plug-In . SVG Version: 6.00 Build 0)  -->
<svg version="1.1" xmlns="http://www.w3.org/2000/svg" xmlns:xlink="http://www.w3.org/1999/xlink" x="0px" y="0px"
	 viewBox="0 0 32 32" style="enable-background:new 0 0 32 32;" xml:space="preserve">
<style type="text/css">
	.st0{fill:none;stroke:#FFFFFF;stroke-width:2;stroke-miterlimit:10;}
	.st1{fill:none;stroke:#060607;stroke-width:2;stroke-miterlimit:10;}
</style>
<g id="Capa_2">
	<g>
		<path class="st0" d="M2.97,10.75"/>
		<path class="st0" d="M7.54,10.85c0,0,0.91,0.02,0.91,0.91S8.42,30.01,8.42,30.01s-0.12,0.83-1,0.88s-4.28,0-4.28,0
			s-1.17,0.05-1.17-1c0-1.05,0-17.98,0-17.98s-0.2-1.03,1.37-1.05S7.54,10.85,7.54,10.85z"/>
		<ellipse class="st0" cx="5.28" cy="5.05" rx="4.15" ry="3.99"/>
		<path class="st0" d="M11.25,12.04c0,4.37,0,17.49,0,17.49s-0.32,1.38,1.54,1.38c1.86,0,3.48,0,3.48,0s1.34,0.36,1.3-1.62
			c-0.04-1.98,0-9.03,0-9.03s0.4-4.39,3.6-4.38s3.16,4.14,3.16,4.14l0,9.68c0,0-0.2,1.18,1.66,1.22c1.86,0.04,3.85,0,3.85,0
			s0.97,0.12,1.01-1.66c0.04-1.78,0-10.45,0-10.45s0.4-8.54-7.57-8.26c0,0-3.81-0.45-5.67,2.71l-0.04-1.34c0,0,0.16-1.06-1.21-1.08
			s-3.85,0-3.85,0S11.25,10.62,11.25,12.04z"/>
	</g>
	<path class="st1" d="M63.82,29.95V25.8c0,0-4.04,0.92-5.6-2.21c-1.56-3.12-2.37-3.12-2.37-3.12s-0.81-1.78,0.75-1.02
		c1.56,0.75,3.39,3.5,3.39,3.5s3.29,1.24,3.82-0.22c0.54-1.45,0.81-2.1,0.81-2.1s-8.13-0.76-7.86-9.02c0,0,0.22-3.63,1.67-5.2
		c0,0-0.54-4.31,0.54-5.17c0,0,2.53,0.16,4.79,1.67c0,0,5.17-1.56,9.43,0c0,0,2.8-1.99,4.74-1.67c0,0,1.51,1.02,0.86,4.96
		c0,0,1.62,1.96,1.56,5.45s-1.24,7.1-7.33,8.61c0,0-1.78-0.11-0.65,0.92c1.13,1.02,1.13,8.51,1.13,8.51S69.15,32,63.82,29.95z"/>
</g>
<g id="Capa_3">
	<g>
		<path class="st0" d="M105.51,14.26V30.1c0,0.09,0.1,0.14,0.17,0.08l11.15-8.61l-10.97-7.49C105.7,13.98,105.51,14.09,105.51,14.26
			z"/>
		<path class="st0" d="M133.94,30.31h-28.13c-0.1,0-0.14-0.13-0.06-0.19l13.73-10.5c0.23-0.18,0.56-0.18,0.79,0l13.73,10.5
			C134.09,30.19,134.04,30.31,133.94,30.31z"/>
		<path class="st0" d="M134.52,14.56V30.1c0,0.09-0.1,0.14-0.17,0.08l-11.29-8.43l10.87-7.5C134.19,14.08,134.52,14.26,134.52,14.56
			z"/>
		<path class="st0" d="M110.07,16.96V2.04c0-0.06,0.05-0.1,0.1-0.1h19.35c0.06,0,0.1,0.05,0.1,0.1v14.92"/>
		<line class="st0" x1="110.07" y1="10.66" x2="105.58" y2="14.11"/>
		<line class="st0" x1="129.63" y1="10.86" x2="134.27" y2="14.18"/>
		<path class="st0" d="M123.52,15.28c0,0-8.34,3.25-8.78-4.62c0,0,0-5.85,5.94-5.47c0,0,5,0.59,4.45,4.97c0,0,0.03,2.93-2.46,3.16
			c0,0-1.17,0-1.17-1.08c0,0-1.29,1.23-1.96,1.05c0,0-1.99-0.02-1.64-2.73s1.89-2.51,1.89-2.51s1.84,0.3,2.02,1.18l0.16-1.47
			l-0.55,5"/>
	</g>
</g>
</svg>
