<?xml version="1.0" encoding="utf-8"?>
<!-- Generator: Adobe Illustrator 24.0.2, SVG Export Plug-In . SVG Version: 6.00 Build 0)  -->
<svg version="1.1" id="Capa_1" xmlns="http://www.w3.org/2000/svg" xmlns:xlink="http://www.w3.org/1999/xlink" x="0px" y="0px"
	 viewBox="0 0 32 32" style="enable-background:new 0 0 32 32;" xml:space="preserve">
<style type="text/css">
	.st0{fill:none;}
	.st1{display:none;fill:#2BC4E7;}
	.st2{fill:#343434;}
	.st3{fill:none;stroke:#030102;stroke-linecap:round;stroke-linejoin:round;}
</style>
<title>mail</title>
<g id="Fondo">
	<g id="container">
		<rect class="st0" width="32" height="32"/>
	</g>
	<path id="bg-color" class="st1" d="M17.6,0.6l10.7,6.2c1.1,0.6,1.7,1.8,1.8,3v12.4c0,1.2-0.7,2.4-1.8,3l-10.7,6.2
		c-1.1,0.6-2.4,0.6-3.5,0L3.4,25.1c-1.1-0.6-1.7-1.8-1.8-3V9.8c0-1.2,0.7-2.4,1.8-3l10.7-6.2C15.2-0.1,16.5-0.1,17.6,0.6z"/>
</g>
<g id="logo">
	<g id="Capa_3">
		<path class="st2" d="M7.4,14.1v9.3c0,0,0.1,0,0.1,0c0,0,0,0,0,0l6.5-5L7.6,14c-0.1,0-0.1,0-0.2,0C7.4,14,7.4,14.1,7.4,14.1z"/>
		<path class="st2" d="M24,23.5H7.5c0,0,0,0,0-0.1c0,0,0,0,0,0l8.1-6.2c0.1-0.1,0.3-0.1,0.5,0l8.1,6.2c0,0,0,0.1,0,0.1
			S24,23.6,24,23.5z"/>
		<path class="st2" d="M24.4,14.3v9.1c0,0-0.1,0-0.1,0c0,0,0,0,0,0l-6.6-4.9l6.3-4.3c0.1-0.1,0.2-0.1,0.3,0
			C24.4,14.2,24.4,14.2,24.4,14.3z"/>
		<path class="st2" d="M10,15.7V7c0,0,0-0.1,0.1-0.1l0,0h11.4c0,0,0.1,0,0.1,0.1v8.7"/>
		<line class="st0" x1="10" y1="12" x2="7.4" y2="14"/>
		<line class="st0" x1="21.5" y1="12.1" x2="24.2" y2="14.1"/>
		<path class="st3" d="M17.9,14.7c0,0-4.9,1.9-5.1-2.7c0-1.7,1.3-3.2,3-3.2c0.1,0,0.3,0,0.4,0c0,0,2.9,0.4,2.6,2.9
			c0,0,0,1.7-1.4,1.9c0,0-0.7,0-0.7-0.6c0,0-0.8,0.7-1.1,0.6c0,0-1.2,0-1-1.6s1.1-1.5,1.1-1.5s1.1,0.2,1.2,0.7l0.1-0.9l-0.3,2.9"/>
	</g>
</g>
</svg>
