<svg xmlns="http://www.w3.org/2000/svg" viewBox="0 0 32 32"><defs><style>.cls-1,.cls-2,.cls-3{fill:none;}.cls-2,.cls-3{stroke:#2bc4e7;}.cls-2{stroke-linecap:round;stroke-linejoin:round;}.cls-3{stroke-miterlimit:10;}</style></defs><title>uxui</title><g id="contenedor"><rect class="cls-1" width="32" height="32"/></g><g id="Capa_4" data-name="Capa 4"><rect class="cls-2" x="1.61" y="2.91" width="28.78" height="19.83" rx="0.83"/><rect class="cls-2" x="3.23" y="4.65" width="25.46" height="16.52" rx="0.56"/><rect class="cls-3" x="13.85" y="22.76" width="3.68" height="5.64" rx="0.43"/><polygon class="cls-2" points="13.85 28.1 8.97 29.97 7.67 28.38 13.85 26.01 13.85 28.1"/><polygon class="cls-2" points="17.53 28.1 22.77 29.97 24.17 28.38 17.53 26.01 17.53 28.1"/><line class="cls-2" x1="10.29" y1="10.21" x2="13.59" y2="15.57"/><path class="cls-2" d="M10.29,15.64c.17-.31,3.47-5.43,3.47-5.43"/><path class="cls-2" d="M5.1,10.21v3.56a1.57,1.57,0,0,0,1.76,1.8,1.78,1.78,0,0,0,2-1.67V10.21"/><path class="cls-2" d="M18.62,10.26v3.56a1.57,1.57,0,0,0,1.76,1.8,1.77,1.77,0,0,0,2-1.67V10.26"/><line class="cls-2" x1="17.15" y1="8.4" x2="14.68" y2="17.23"/><line class="cls-2" x1="25.27" y1="10.21" x2="25.39" y2="15.57"/><line class="cls-2" x1="23.77" y1="10.21" x2="26.83" y2="10.21"/><line class="cls-2" x1="23.77" y1="15.57" x2="26.83" y2="15.57"/></g></svg>