<svg xmlns="http://www.w3.org/2000/svg" viewBox="0 0 32 32"><defs><style>.cls-1{fill:none;}.cls-2{fill:#fff;}</style></defs><title>webComponent</title><g id="Fondo"><g id="container"><rect class="cls-1" width="32" height="32"/></g><path id="bg-color" d="M17.62.57,28.3,6.74a3.5,3.5,0,0,1,1.76,3V22.11a3.5,3.5,0,0,1-1.76,3L17.62,31.32a3.5,3.5,0,0,1-3.51,0L3.43,25.15a3.5,3.5,0,0,1-1.76-3V9.78a3.5,3.5,0,0,1,1.76-3L14.11.57A3.5,3.5,0,0,1,17.62.57Z"/></g><g id="logo"><polygon class="cls-2" points="9.29 6.12 3.58 16.07 9.24 25.75 15.33 25.88 9.66 16 15.42 6.12 9.29 6.12"/><polygon class="cls-2" points="15.62 6.12 12.9 10.73 19 10.77 22.2 6.12 15.62 6.12"/><polygon class="cls-2" points="22.4 6.24 19.25 10.77 25.06 10.77 22.4 6.24"/><polygon class="cls-2" points="19.17 10.88 24.98 10.88 24.44 11.45 18.73 11.45 19.17 10.88"/><polygon class="cls-2" points="18.62 11.55 24.43 11.6 21.01 15.56 18.62 11.55"/><polygon class="cls-2" points="25.41 11.63 21.96 15.56 27.77 15.56 25.41 11.63"/><polygon class="cls-2" points="24.5 11.63 25.29 11.63 21.85 15.56 21.12 15.56 24.5 11.63"/><polygon class="cls-2" points="21.96 15.64 21.69 15.94 27.96 15.94 27.77 15.64 21.96 15.64"/><polygon class="cls-2" points="21.69 16.03 22.05 16.42 27.77 16.42 27.96 16.03 21.69 16.03"/><polygon class="cls-2" points="22.1 16.55 25.35 20.45 27.77 16.55 22.1 16.55"/><polygon class="cls-2" points="21.96 16.55 21.12 16.52 24.54 20.45 25.21 20.45 21.96 16.55"/><polygon class="cls-2" points="21 16.55 18.62 20.45 24.43 20.5 21 16.55"/><polygon class="cls-2" points="18.62 20.57 19.12 21.24 25.05 21.24 24.52 20.57 18.62 20.57"/><polygon class="cls-2" points="12.92 21.41 25.05 21.41 22.42 25.88 15.52 25.88 12.92 21.41"/></g></svg>