<svg xmlns="http://www.w3.org/2000/svg" viewBox="0 0 32 32"><defs><style>.cls-1,.cls-2,.cls-6{fill:none;}.cls-2,.cls-3,.cls-5,.cls-6{stroke:#2bc4e7;}.cls-2,.cls-5,.cls-6{stroke-miterlimit:10;}.cls-3,.cls-5{fill:#343434;}.cls-3,.cls-6{stroke-linecap:round;}.cls-3{stroke-linejoin:round;}.cls-4{fill:#1d1d1b;}</style></defs><title>webdevelopericon</title><g id="contenedor"><rect class="cls-1" width="32" height="32"/></g><g id="Capa_3" data-name="Capa 3"><rect class="cls-2" x="4.51" y="10.04" width="21.43" height="14.96" rx="1.01"/><line class="cls-2" x1="4.51" y1="22.66" x2="25.94" y2="22.58"/><path class="cls-2" d="M10.21,27.73H20a1.5,1.5,0,0,1,1.5,1.5v.16a.55.55,0,0,1-.55.55H9.11a.48.48,0,0,1-.48-.48V29.3a1.57,1.57,0,0,1,1.57-1.57Z"/><line class="cls-2" x1="12.42" y1="24.99" x2="11.36" y2="27.6"/><line class="cls-2" x1="18.19" y1="24.99" x2="19.27" y2="27.73"/></g><g id="Capa_2" data-name="Capa 2"><rect id="bg-color" class="cls-3" x="23.85" y="19.15" width="7.02" height="10.4" rx="0.75"/><circle class="cls-4" cx="27.22" cy="27.96" r="0.67"/></g><g id="Capa_4" data-name="Capa 4"><rect id="bg-color-2" data-name="bg-color" class="cls-5" x="1.14" y="2.06" width="19.42" height="15.96" rx="0.85"/><rect class="cls-2" x="3.52" y="8.57" width="5.18" height="7.21" rx="0.66"/><rect class="cls-2" x="10.85" y="8.36" width="7.48" height="2.77" rx="0.68"/><line class="cls-6" x1="10.69" y1="13.54" x2="18.57" y2="13.47"/><line class="cls-6" x1="10.85" y1="15.78" x2="12.16" y2="15.78"/><line class="cls-6" x1="14.33" y1="15.78" x2="18.33" y2="15.78"/><line class="cls-6" x1="1.14" y1="6.16" x2="9.85" y2="6.23"/><line class="cls-6" x1="11.74" y1="6.19" x2="20.56" y2="6.19"/><line class="cls-6" x1="3.27" y1="4.02" x2="8.28" y2="4.06"/><line class="cls-6" x1="13.49" y1="4.02" x2="13.7" y2="4.02"/><line class="cls-6" x1="15.73" y1="4.02" x2="16.15" y2="4.02"/><line class="cls-6" x1="18.08" y1="4.02" x2="18.33" y2="4.02"/></g></svg>