<?xml version="1.0" encoding="utf-8"?>
<!-- Generator: Adobe Illustrator 24.0.2, SVG Export Plug-In . SVG Version: 6.00 Build 0)  -->
<svg version="1.1" id="Capa_1" xmlns="http://www.w3.org/2000/svg" xmlns:xlink="http://www.w3.org/1999/xlink" x="0px" y="0px"
	 viewBox="0 0 32 32" style="enable-background:new 0 0 32 32;" xml:space="preserve">
<style type="text/css">
	.st0{display:none;}
	.st1{display:inline;}
	.st2{fill:none;}
	.st3{display:inline;fill:#2BC4E7;}
	.st4{fill:#343434;}
	.st5{fill:none;stroke:#343434;stroke-width:1.5;stroke-linecap:round;stroke-linejoin:round;}
</style>
<title>whatsapp</title>
<g id="Fondo" class="st0">
	<g id="container" class="st1">
		<rect class="st2" width="32" height="32"/>
	</g>
	<path id="bg-color" class="st3" d="M17.5,0.6l10.7,6.2c1.1,0.6,1.7,1.8,1.8,3v12.4c0,1.2-0.7,2.4-1.8,3l-10.7,6.2
		c-1.1,0.6-2.4,0.6-3.5,0L3.3,25.2c-1.1-0.6-1.7-1.8-1.8-3V9.9c0-1.2,0.7-2.4,1.8-3L14,0.6C15.1,0,16.4,0,17.5,0.6z"/>
</g>
<g id="logo">
	<g id="logo-2">
		<g id="Capa_2_1_">
			<path class="st4" d="M14,10.8l0.8,1.9c0,0,0.4,0.5-0.3,1.1L14,14.4c0,0.1,0,0.1,0.1,0.2c0.8,1.2,2,2.2,3.4,2.8l0.9-1.1
				c0,0,0.2-0.5,0.9-0.1l1.9,0.9c0,0,0.3,0.1,0.3,0.3c0.1,0.4,0.1,0.8,0,1.2c-0.4,0.9-1.3,1.5-2.3,1.6c-1,0-1.9-0.2-2.8-0.6
				c-1.6-0.7-2.9-1.7-3.9-3.1C11,14.3,11,13.8,11,13.8c-0.4-1.2,0-2.4,0.9-3.2C13.4,9.5,14,10.8,14,10.8z"/>
			<path class="st5" d="M25.8,15.2c0,5.2-4.2,9.5-9.5,9.5c0,0,0,0,0,0c-1.8,0-3.5-0.5-5-1.4l-4.5,1.3l1.3-4.5C5.4,15.5,7,9.7,11.5,7
				c1.4-0.8,3.1-1.3,4.7-1.3l0,0c5.2,0,9.5,4.2,9.5,9.4C25.8,15.1,25.8,15.2,25.8,15.2z"/>
		</g>
	</g>
</g>
</svg>
